<?xml version="1.0" encoding="utf-8"?>
<!-- Svg Vector Icons : http://www.onlinewebfonts.com/icon -->
<!DOCTYPE svg PUBLIC "-//W3C//DTD SVG 1.1//EN" "http://www.w3.org/Graphics/SVG/1.1/DTD/svg11.dtd">
<svg version="1.1" xmlns="http://www.w3.org/2000/svg" xmlns:xlink="http://www.w3.org/1999/xlink" x="0px" y="0px" viewBox="0 0 1000 1000" enable-background="new 0 0 1000 1000" xml:space="preserve">
<metadata> Svg Vector Icons : http://www.onlinewebfonts.com/icon </metadata>
<g><path d="M777.9,526.4c58.5-28.6,98.9-88.1,98.9-156.7c0-96.4-79.5-174.8-177.3-174.8c-7.7,0-15.3,0.5-22.8,1.5c9.9,12.1,18.5,25.2,25.8,39.1c74.1,1.6,133.8,61.1,133.8,134.2c0,74.1-61.4,134.4-136.9,134.4l71.3,62.5c98.8,1.1,178.9,80.3,178.9,177.6v12.4c0,4.9-1.1,7.2-4.8,10.1c-6.2,4.8-17.5,9-32.7,12c-15.6,3.1-34.3,4.8-55,5.8c-0.5,16-4,29.5-10.3,40.9c82.2-2.8,143.1-15.1,143.1-68.7v-12.4C990,627,895.7,531.1,777.9,526.4z"/><path d="M587.5,518.1c66.8-32.6,112.9-100.6,112.9-179c0-110-90.8-199.6-202.4-199.6c-111.6,0-202.4,89.5-202.4,199.6c0,79,46.8,147.5,114.5,179.8c-128.5,11.6-229.5,118.3-229.5,247.9V781c0,36.9,25.5,59.9,77.9,70.5c44.8,9,105,9,174.8,9H577c135.6,0,252.7,0,252.7-79.5v-14.1C829.7,633,721.9,523.5,587.5,518.1z M341.7,339.1c0-84.6,70.1-153.4,156.3-153.4c86.2,0,156.3,68.8,156.3,153.4c0,84.6-70.1,153.5-156.3,153.5C411.8,492.6,341.7,423.8,341.7,339.1z M783.5,781c0,5.6-1.2,8.2-5.4,11.5c-7,5.5-19.9,10.3-37.3,13.7c-41,8.1-100.7,8.1-163.8,8.1H433.3c-67.3,0-125.4,0-165.7-8.1c-16.8-3.4-29.1-8-35.7-13.3c-3.9-3.2-5.2-6.1-5.2-11.9v-14.1c0-111.9,92.7-202.9,206.6-202.9H577c113.9,0,206.6,91,206.6,202.9L783.5,781L783.5,781z"/><path d="M87.9,778.7c-15.2-3-26.5-7.2-32.7-12c-3.7-2.9-4.8-5.2-4.8-10.1v-12.4c0-97.3,80.1-176.5,178.9-177.6l71.3-62.5c-75.5,0-136.9-60.3-136.9-134.4c0-73.1,59.8-132.6,133.8-134.2c7.3-13.9,15.9-27,25.8-39.1c-7.5-0.9-15-1.5-22.8-1.5c-97.7,0-177.3,78.4-177.3,174.8c0,68.6,40.3,128.1,98.9,156.7C104.3,531.1,10,627,10,744.2v12.4c0,53.6,60.9,65.9,143.1,68.7c-6.3-11.4-9.8-24.9-10.3-40.9C122.2,783.5,103.4,781.8,87.9,778.7z"/></g>
</svg>